{
    "asset" : {
        "generator" : "Khronos glTF Blender I/O v3.3.32",
        "version" : "2.0"
    },
    "scene" : 0,
    "scenes" : [
        {
            "name" : "Scene",
            "nodes" : [
                0
            ]
        }
    ],
    "nodes" : [
        {
            "mesh" : 0,
            "name" : "Curve.005",
            "rotation" : [
                0.7071068286895752,
                0,
                0,
                0.7071068286895752
            ],
            "scale" : [
                1.9060075283050537,
                1.9060075283050537,
                1.9060075283050537
            ],
            "translation" : [
                -0.39252787828445435,
                -0.15066944062709808,
                0.034728989005088806
            ]
        }
    ],
    "materials" : [
        {
            "doubleSided" : true,
            "name" : "Material.001",
            "pbrMetallicRoughness" : {
                "baseColorFactor" : [
                    0.8000000715255737,
                    0.4142933487892151,
                    0.0016368580982089043,
                    1
                ],
                "metallicFactor" : 0,
                "roughnessFactor" : 0.4000000059604645
            }
        }
    ],
    "meshes" : [
        {
            "name" : "Curve.027",
            "primitives" : [
                {
                    "attributes" : {
                        "POSITION" : 0,
                        "NORMAL" : 1
                    },
                    "indices" : 2,
                    "material" : 0
                }
            ]
        }
    ],
    "accessors" : [
        {
            "bufferView" : 0,
            "componentType" : 5126,
            "count" : 60112,
            "max" : [
                0.47072476148605347,
                0.020000098273158073,
                0.0014783523511141539
            ],
            "min" : [
                -0.012281271629035473,
                -0.020000098273158073,
                -0.20693039894104004
            ],
            "type" : "VEC3"
        },
        {
            "bufferView" : 1,
            "componentType" : 5126,
            "count" : 60112,
            "type" : "VEC3"
        },
        {
            "bufferView" : 2,
            "componentType" : 5123,
            "count" : 360804,
            "type" : "SCALAR"
        }
    ],
    "bufferViews" : [
        {
            "buffer" : 0,
            "byteLength" : 721344,
            "byteOffset" : 0,
            "target" : 34962
        },
        {
            "buffer" : 0,
            "byteLength" : 721344,
            "byteOffset" : 721344,
            "target" : 34962
        },
        {
            "buffer" : 0,
            "byteLength" : 721608,
            "byteOffset" : 1442688,
            "target" : 34963
        }
    ],
    "buffers" : [
        {
            "byteLength" : 2164296,
            "uri" : "data:application/octet-stream;base64,"
        }
    ]
}
